<svg width="155" height="40" viewBox="0 0 155 40" fill="none" xmlns="http://www.w3.org/2000/svg">
<path d="M59.817 12.5672C60.6286 12.8805 61.2563 13.3304 61.7003 13.9114C62.1442 14.4952 62.3676 15.1786 62.3676 15.9675C62.3676 16.7705 62.1414 17.4683 61.6918 18.0663C61.2393 18.6643 60.6257 19.0716 59.8509 19.2908C60.7813 19.4788 61.5136 19.9259 62.0481 20.6264C62.5825 21.327 62.8483 22.1728 62.8483 23.1638C62.8483 24.0239 62.6193 24.7785 62.1612 25.4278C61.7031 26.0771 61.0499 26.5726 60.2044 26.9144C59.3589 27.2561 58.3664 27.4298 57.2268 27.4298H50.0219V12.0945H56.9526C58.0525 12.0945 59.0055 12.2511 59.817 12.5672ZM57.996 17.7929C58.3014 17.5224 58.4541 17.1465 58.4541 16.6652C58.4541 16.1981 58.3014 15.8365 57.996 15.583C57.6906 15.3267 57.2749 15.2071 56.7461 15.2214H53.8308V18.1973H56.7461C57.2749 18.2001 57.6906 18.0634 57.996 17.7929ZM58.3296 23.8872C58.717 23.5967 58.9121 23.1866 58.9121 22.6626C58.9121 22.1813 58.717 21.7997 58.3296 21.515C57.9422 21.2302 57.4135 21.0963 56.749 21.1106H53.8336V24.3257H56.749C57.4135 24.3229 57.9394 24.1776 58.3296 23.8872Z" fill="#58595B"/>
<path d="M73.6275 16.5683C74.4871 17.3201 74.9254 18.3738 74.9395 19.7294V27.4298H71.2974V26.0942C70.5481 27.0994 69.417 27.6035 67.9042 27.6035C66.7109 27.6035 65.7693 27.2646 65.085 26.5868C64.3979 25.9091 64.0557 25.0149 64.0557 23.9071C64.0557 22.785 64.4262 21.9079 65.1698 21.2814C65.9107 20.6549 66.9767 20.3331 68.3651 20.3189H71.3003V20.1907C71.3003 19.6212 71.1165 19.1854 70.7489 18.8779C70.3813 18.5703 69.8497 18.4194 69.1569 18.4194C68.6847 18.4194 68.1531 18.4991 67.5649 18.6615C66.9739 18.8209 66.3829 19.0544 65.7863 19.362L64.7655 16.7364C65.6816 16.2978 66.5582 15.9731 67.3981 15.7624C68.2379 15.5517 69.1088 15.4463 70.0108 15.4463C71.5604 15.4435 72.7679 15.8165 73.6275 16.5683ZM70.5057 24.5307C70.9214 24.246 71.1843 23.8786 71.2974 23.4258V22.3978H69.0918C68.0513 22.3978 67.531 22.805 67.531 23.6223C67.531 24.0295 67.6667 24.3542 67.9381 24.5962C68.2096 24.8383 68.58 24.9579 69.0523 24.9579C69.6037 24.9579 70.09 24.8155 70.5057 24.5307Z" fill="#58595B"/>
<path d="M95.4035 16.6679C96.1387 17.4852 96.5063 18.5873 96.5063 19.9713V27.4325H92.802V21.0877C92.802 20.4156 92.6352 19.8888 92.3015 19.5015C91.9679 19.1142 91.5183 18.9205 90.9499 18.9205C90.2967 18.9347 89.7792 19.1853 89.4003 19.6752C89.0186 20.165 88.8263 20.8029 88.8263 21.5889V27.4297H85.122V21.0877C85.122 20.4156 84.9552 19.8888 84.6215 19.5015C84.2879 19.1142 83.8383 18.9205 83.2699 18.9205C82.6167 18.9347 82.0964 19.1853 81.709 19.6752C81.3188 20.165 81.1265 20.8029 81.1265 21.5889V27.4297H77.442V15.5943H81.1265V17.5422C81.5139 16.8559 82.0172 16.3347 82.6365 15.9787C83.2529 15.6199 83.9712 15.4434 84.7912 15.4434C85.7074 15.4434 86.4906 15.6769 87.1438 16.1439C87.797 16.611 88.2608 17.2602 88.5379 18.0918C88.8998 17.2175 89.4145 16.5568 90.0875 16.1126C90.7604 15.6683 91.555 15.4462 92.4712 15.4462C93.6871 15.4434 94.6655 15.8506 95.4035 16.6679Z" fill="#58595B"/>
<path d="M108.892 16.2181C109.683 16.7221 110.297 17.4369 110.732 18.3625C111.171 19.288 111.388 20.3559 111.388 21.5662C111.388 22.7623 111.176 23.8131 110.752 24.7159C110.328 25.6186 109.726 26.3192 108.943 26.8147C108.159 27.3102 107.252 27.558 106.225 27.558C105.518 27.558 104.876 27.4156 104.299 27.1308C103.723 26.846 103.233 26.4331 102.832 25.8949V27.427H99.1276V11.1946H102.832V17.1237C103.652 16.0159 104.755 15.4606 106.14 15.4606C107.184 15.4634 108.1 15.7169 108.892 16.2181ZM106.986 23.6024C107.435 23.0642 107.662 22.3551 107.662 21.4808C107.662 20.6065 107.435 19.8946 106.986 19.3478C106.533 18.801 105.948 18.5276 105.227 18.5276C104.52 18.5276 103.943 18.801 103.499 19.3478C103.055 19.8946 102.832 20.6065 102.832 21.4808C102.832 22.3551 103.052 23.0642 103.499 23.6024C103.943 24.1435 104.52 24.4112 105.227 24.4112C105.948 24.4112 106.536 24.1406 106.986 23.6024Z" fill="#58595B"/>
<path d="M124.294 15.5945V27.4299H120.59V25.5048C119.826 26.8746 118.627 27.5751 116.987 27.6064C115.766 27.6064 114.79 27.1935 114.063 26.3705C113.334 25.5475 112.969 24.4482 112.969 23.0785V15.5945H116.673V21.9593C116.673 22.6314 116.837 23.1554 117.163 23.5341C117.488 23.9129 117.929 24.1037 118.483 24.1037C119.136 24.0894 119.648 23.8388 120.024 23.349C120.397 22.8592 120.587 22.2213 120.587 21.4353V15.5945H124.294Z" fill="#58595B"/>
<path d="M131.496 23.4287C132.036 24.0125 132.723 24.3029 133.558 24.3029C134.378 24.3029 135.039 24.0153 135.545 23.4372C136.052 22.862 136.306 22.0845 136.306 21.1077V12.0945H140.115V21.1077C140.115 22.4348 139.846 23.5995 139.315 24.5963C138.78 25.5958 138.017 26.3647 137.024 26.903C136.032 27.444 134.87 27.7117 133.538 27.7117C132.206 27.7117 131.035 27.4412 130.031 26.903C129.025 26.3647 128.247 25.593 127.699 24.5963C127.15 23.5967 126.876 22.4348 126.876 21.1077V12.0945H130.685V21.1077C130.685 22.0703 130.956 22.8449 131.496 23.4287Z" fill="#93C04D"/>
<path d="M153.459 13.507C154.485 14.4468 155 15.771 155 17.4768C155 19.2851 154.485 20.6891 153.459 21.6887C152.432 22.6882 150.987 23.1866 149.13 23.1866H146.528V27.4298H142.719V12.0945H149.13C150.987 12.0945 152.432 12.5672 153.459 13.507ZM150.741 19.3791C151.166 18.9719 151.378 18.3795 151.378 17.6078C151.378 16.8645 151.166 16.2921 150.741 15.8906C150.317 15.489 149.718 15.2897 148.94 15.2897H146.525V19.9914H148.94C149.718 19.9914 150.317 19.7892 150.741 19.3791Z" fill="#93C04D"/>
<path d="M25.6472 17.5024H21.6601V18.0521H21.6714V19.2225H25.6472C26.3909 19.2225 26.996 19.8319 26.996 20.5809V36.9215C26.996 37.6705 26.3909 38.2799 25.6472 38.2799H21.6601C20.9164 38.2799 20.3113 37.6705 20.3113 36.9215V23.4629L18.6034 23.1838V36.9186C18.6034 38.6159 19.9748 39.9971 21.6601 39.9971H25.6472C27.3325 39.9971 28.7039 38.6159 28.7039 36.9186V20.5837C28.7039 18.8836 27.3325 17.5024 25.6472 17.5024Z" fill="#8EBE3F"/>
<path d="M25.6472 0H21.6601C19.9748 0 18.6034 1.38118 18.6034 3.07846V19.419C18.6034 21.1163 19.9748 22.4975 21.6601 22.4975H25.0929V20.7774H21.6601C20.9164 20.7774 20.3113 20.168 20.3113 19.419V3.07846C20.3113 2.32949 20.9164 1.72006 21.6601 1.72006H25.6472C26.3909 1.72006 26.996 2.32949 26.996 3.07846V18.69H27.9489V21.441C28.4183 20.8999 28.7067 20.1908 28.7067 19.4162V3.07846C28.7039 1.38118 27.3325 0 25.6472 0Z" fill="#8EBE3F"/>
<path d="M36.6412 17.5024H32.6542V18.0521H32.6655V19.2225H36.6384C37.3821 19.2225 37.9872 19.8319 37.9872 20.5809V36.9215C37.9872 37.6705 37.3821 38.2799 36.6384 38.2799H32.6513C31.9077 38.2799 31.3025 37.6705 31.3025 36.9215V23.4629L29.5946 23.1838V36.9186C29.5946 38.6159 30.966 39.9971 32.6513 39.9971H36.6384C38.3237 39.9971 39.6951 38.6159 39.6951 36.9186V20.5837C39.6979 18.8836 38.3265 17.5024 36.6412 17.5024Z" fill="#008D47"/>
<path d="M36.6428 0H32.6558C30.9705 0 29.5991 1.38118 29.5991 3.07846V19.419C29.5991 21.1163 30.9705 22.4975 32.6558 22.4975H36.0886V20.7774H32.6558C31.9121 20.7774 31.307 20.168 31.307 19.419V3.07846C31.307 2.32949 31.9121 1.72006 32.6558 1.72006H36.6428C37.3865 1.72006 37.9917 2.32949 37.9917 3.07846V18.69H38.9446V21.441C39.414 20.8999 39.7024 20.1908 39.7024 19.4162V3.07846C39.6996 1.38118 38.3282 0 36.6428 0Z" fill="#008D47"/>
<path d="M14.7097 17.5024H10.6859V18.0521H10.6972V19.2225H14.7097C15.4618 19.2225 16.0726 19.8319 16.0726 20.5809V36.9215C16.0726 37.6705 15.4618 38.2799 14.7097 38.2799H10.6859C9.9337 38.2799 9.32292 37.6705 9.32292 36.9215V24.078L8.96945 23.4059L7.59802 23.1838V36.9186C7.59802 38.6159 8.98359 39.9971 10.6859 39.9971H14.7125C16.4148 39.9971 17.8003 38.6159 17.8003 36.9186V20.5837C17.7975 18.8836 16.4148 17.5024 14.7097 17.5024Z" fill="#E1D91E"/>
<path d="M14.7097 0H10.6859C8.98359 0 7.59802 1.38118 7.59802 3.07846V19.419C7.59802 21.1163 8.98359 22.4975 10.6859 22.4975H14.1526V20.7774H10.6859C9.9337 20.7774 9.32292 20.168 9.32292 19.419V3.07846C9.32292 2.32949 9.9337 1.72006 10.6859 1.72006H14.7125C15.4647 1.72006 16.0754 2.32949 16.0754 3.07846V18.69H17.0369V21.441C17.5119 20.8999 17.8003 20.1908 17.8003 19.4162V3.07846C17.7975 1.38118 16.4148 0 14.7097 0Z" fill="#E1D91E"/>
<path d="M9.3229 24.2204C9.3229 24.2204 8.59336 21.4182 3.82021 18.4878C1.66834 17.3259 0 17.1465 0 17.1465C0 17.1465 1.37709 17.9666 2.48837 19.1912C3.26881 20.0541 3.54875 21.2331 4.73073 21.9564C7.59518 23.7049 8.45197 23.6594 8.45197 23.6594L9.3229 24.2204Z" fill="#E1D91E"/>
<path d="M7.95997 23.4258C7.95997 23.4258 5.16904 22.3494 3.12744 24.246C4.81557 25.1032 7.49623 23.9698 7.95997 23.4258Z" fill="#E1D91E"/>
</svg>
